<mxfile host="65bd71144e">
    <diagram id="FJN0SG6FwUewnoNzlEO9" name="Page-1">
        <mxGraphModel dx="2833" dy="823" grid="1" gridSize="10" guides="1" tooltips="1" connect="1" arrows="1" fold="1" page="1" pageScale="1" pageWidth="827" pageHeight="1169" math="0" shadow="0">
            <root>
                <mxCell id="0"/>
                <mxCell id="1" parent="0"/>
                <mxCell id="44" style="edgeStyle=none;html=1;entryX=-0.012;entryY=0.055;entryDx=0;entryDy=0;entryPerimeter=0;" parent="1" source="2" target="8" edge="1">
                    <mxGeometry relative="1" as="geometry"/>
                </mxCell>
                <mxCell id="2" value="common/styles/base.scss" style="whiteSpace=wrap;html=1;" parent="1" vertex="1">
                    <mxGeometry x="-360" y="200" width="210" height="40" as="geometry"/>
                </mxCell>
                <mxCell id="42" style="edgeStyle=none;html=1;entryX=0.005;entryY=0.153;entryDx=0;entryDy=0;entryPerimeter=0;" parent="1" source="3" target="7" edge="1">
                    <mxGeometry relative="1" as="geometry"/>
                </mxCell>
                <mxCell id="3" value="common/styles/abstracts" style="whiteSpace=wrap;html=1;" parent="1" vertex="1">
                    <mxGeometry x="-360" y="280" width="210" height="40" as="geometry"/>
                </mxCell>
                <mxCell id="11" style="edgeStyle=orthogonalEdgeStyle;rounded=0;orthogonalLoop=1;jettySize=auto;html=1;exitX=1;exitY=0.5;exitDx=0;exitDy=0;" parent="1" source="4" target="7" edge="1">
                    <mxGeometry relative="1" as="geometry">
                        <Array as="points">
                            <mxPoint x="-20" y="380"/>
                            <mxPoint x="-20" y="380"/>
                        </Array>
                    </mxGeometry>
                </mxCell>
                <mxCell id="4" value="components/views/atoms" style="whiteSpace=wrap;html=1;" parent="1" vertex="1">
                    <mxGeometry x="-280" y="360" width="200" height="40" as="geometry"/>
                </mxCell>
                <mxCell id="16" style="edgeStyle=orthogonalEdgeStyle;rounded=0;orthogonalLoop=1;jettySize=auto;html=1;" parent="1" source="5" edge="1">
                    <mxGeometry relative="1" as="geometry">
                        <mxPoint x="39" y="460" as="targetPoint"/>
                        <Array as="points">
                            <mxPoint x="39" y="460"/>
                        </Array>
                    </mxGeometry>
                </mxCell>
                <mxCell id="5" value="components/views/molecule" style="whiteSpace=wrap;html=1;" parent="1" vertex="1">
                    <mxGeometry x="-280" y="440" width="200" height="40" as="geometry"/>
                </mxCell>
                <mxCell id="41" style="edgeStyle=none;html=1;entryX=0.011;entryY=0.836;entryDx=0;entryDy=0;entryPerimeter=0;" parent="1" source="6" target="7" edge="1">
                    <mxGeometry relative="1" as="geometry"/>
                </mxCell>
                <mxCell id="6" value="components/views/organisms" style="whiteSpace=wrap;html=1;" parent="1" vertex="1">
                    <mxGeometry x="-280" y="520" width="200" height="40" as="geometry"/>
                </mxCell>
                <mxCell id="43" style="edgeStyle=none;html=1;exitX=1;exitY=0.5;exitDx=0;exitDy=0;" parent="1" source="7" edge="1">
                    <mxGeometry relative="1" as="geometry">
                        <mxPoint x="280" y="420" as="targetPoint"/>
                    </mxGeometry>
                </mxCell>
                <mxCell id="7" value="components/models/templates" style="whiteSpace=wrap;html=1;verticalAlign=middle;horizontal=1;" parent="1" vertex="1">
                    <mxGeometry x="40" y="240" width="190" height="360" as="geometry"/>
                </mxCell>
                <mxCell id="48" style="edgeStyle=none;html=1;entryX=0;entryY=0.5;entryDx=0;entryDy=0;" parent="1" source="8" target="47" edge="1">
                    <mxGeometry relative="1" as="geometry"/>
                </mxCell>
                <mxCell id="8" value="components/controllers/pages&lt;br&gt;OR&lt;br&gt;components/controllers/screens" style="whiteSpace=wrap;html=1;verticalAlign=middle;horizontal=1;" parent="1" vertex="1">
                    <mxGeometry x="280" y="200" width="240" height="400" as="geometry"/>
                </mxCell>
                <mxCell id="53" style="edgeStyle=none;html=1;entryX=0;entryY=0.5;entryDx=0;entryDy=0;" parent="1" source="46" target="56" edge="1">
                    <mxGeometry relative="1" as="geometry">
                        <mxPoint x="600" y="680" as="targetPoint"/>
                    </mxGeometry>
                </mxCell>
                <mxCell id="46" value="components/controllers/pages/*.js&lt;br&gt;OR&lt;br&gt;components/controllers/screens/*.js" style="rounded=0;whiteSpace=wrap;html=1;" parent="1" vertex="1">
                    <mxGeometry x="280" y="640" width="240" height="80" as="geometry"/>
                </mxCell>
                <mxCell id="51" style="edgeStyle=none;html=1;entryX=0;entryY=0.5;entryDx=0;entryDy=0;" parent="1" source="47" target="50" edge="1">
                    <mxGeometry relative="1" as="geometry"/>
                </mxCell>
                <mxCell id="47" value="node-sass&lt;br&gt;&lt;div style=&quot;&quot;&gt;&lt;span&gt;- compile *.scss to *.css&lt;/span&gt;&lt;/div&gt;" style="rounded=0;whiteSpace=wrap;html=1;align=left;spacingLeft=10;" parent="1" vertex="1">
                    <mxGeometry x="600" y="240" width="240" height="310" as="geometry"/>
                </mxCell>
                <mxCell id="50" value="&lt;span&gt;- post-css and autoprefixer&lt;br&gt;add vendor prefixes using Autoprefixer &amp;amp; PostCSS&lt;/span&gt;" style="rounded=0;whiteSpace=wrap;html=1;align=left;spacingLeft=10;" parent="1" vertex="1">
                    <mxGeometry x="920" y="280" width="280" height="240" as="geometry"/>
                </mxCell>
                <mxCell id="55" style="edgeStyle=none;html=1;entryX=0;entryY=0.5;entryDx=0;entryDy=0;" parent="1" source="54" target="46" edge="1">
                    <mxGeometry relative="1" as="geometry"/>
                </mxCell>
                <mxCell id="54" value="components/models/templates" style="rounded=0;whiteSpace=wrap;html=1;" parent="1" vertex="1">
                    <mxGeometry x="40" y="640" width="200" height="80" as="geometry"/>
                </mxCell>
                <mxCell id="62" style="edgeStyle=none;html=1;entryX=0;entryY=0.5;entryDx=0;entryDy=0;" edge="1" parent="1" source="56" target="60">
                    <mxGeometry relative="1" as="geometry"/>
                </mxCell>
                <mxCell id="56" value="webpack" style="rounded=0;whiteSpace=wrap;html=1;" parent="1" vertex="1">
                    <mxGeometry x="600" y="640" width="240" height="80" as="geometry"/>
                </mxCell>
                <mxCell id="58" value="&lt;span style=&quot;text-align: left&quot;&gt;eslint&lt;/span&gt;&lt;br style=&quot;text-align: left&quot;&gt;&lt;span style=&quot;text-align: left&quot;&gt;-&amp;nbsp;keep format and style when authoring code&lt;/span&gt;" style="rounded=0;whiteSpace=wrap;html=1;" vertex="1" parent="1">
                    <mxGeometry x="1280" y="640" width="280" height="80" as="geometry"/>
                </mxCell>
                <mxCell id="61" style="edgeStyle=none;html=1;entryX=0;entryY=0.5;entryDx=0;entryDy=0;" edge="1" parent="1" source="60" target="58">
                    <mxGeometry relative="1" as="geometry"/>
                </mxCell>
                <mxCell id="60" value="- babel-loader&lt;br&gt;- transpile" style="rounded=0;whiteSpace=wrap;html=1;" vertex="1" parent="1">
                    <mxGeometry x="920" y="640" width="280" height="80" as="geometry"/>
                </mxCell>
            </root>
        </mxGraphModel>
    </diagram>
</mxfile>